inDegrees=no
nColumns=32
nRows=12
DataType=double
version=3
OpenSimVersion=4.5
endheader
time	pelvis_tilt	pelvis_list	pelvis_rotation	pelvis_tz	pelvis_ty	pelvis_tx	hip_flexion_r	hip_adduction_r	hip_rotation_r	knee_angle_r	ankle_angle_r	subtalar_angle_r	mtp_angle_r	hip_flexion_l	hip_adduction_l	hip_rotation_l	knee_angle_l	ankle_angle_l	subtalar_angle_l	mtp_angle_l	lumbar_extension	lumbar_bending	lumbar_rotation	arm_flex_r	arm_add_r	arm_rot_r	elbow_flex_r	arm_flex_l	arm_add_l	arm_rot_l	elbow_flex_l
0.3100000000000001	-0.04381663754901981	0.1001418365899337	-0.04347918958653914	-0.05988514	0.8826572499999999	0.2945083	0.4007804402897924	-0.1884087817940443	-0.1124233050800756	-1.079351266280958	0.08811394125194273	-0.1772137462181073	0	0.1420967156602005	0.1653058853634658	-0.2776149179778268	-0.1493221909660295	0.1134596894438915	-0.1010611271756567	0	-0.1182591096164927	-0.1027846834452324	-0.02251161116859394	-0.1454306826927353	-0.2349447419059265	-0.03981951968170828	0.6556402965321853	-0.1204508248015759	-0.2957975101138171	-0.05964818419513192	0.9544992947955779
0.3199999999999998	-0.04395673201208292	0.09912590204041145	-0.04082591649370633	-0.06149018000000001	0.88307601	0.30358136	0.4189426691458008	-0.1861254441536143	-0.1180355517888682	-1.061959075120134	0.09634680768658641	-0.1804368038598632	0	0.1237271113203262	0.1680013212456976	-0.2770168927778699	-0.1363904311349093	0.1207954880589366	-0.09355659623718117	0	-0.1139792584287798	-0.09881492717464943	-0.03256613080155336	-0.1615940864873995	-0.2402682331402217	-0.0468949286113911	0.6555751060411623	-0.1183619568078579	-0.2979426904577189	-0.06117583266669193	0.9613507877560737
0.3300000000000001	-0.03999045948365391	0.09626439142113552	-0.03572893538844909	-0.06293313	0.88385492	0.31242477	0.4295071373342787	-0.1824508164272924	-0.1276779178530886	-1.038280384620945	0.1047513131159968	-0.1825027406706708	0	0.1039596560273688	0.1676973562739666	-0.2821932621809999	-0.1288591593088322	0.1291551896647178	-0.07539735887551068	0	-0.1179805287134027	-0.09365711673012053	-0.04554642352678258	-0.1824640978593013	-0.2425594830562827	-0.06753636136700902	0.6758001754938855	-0.120474869330016	-0.3026905947939866	-0.06675435280755188	0.9807446479922589
0.3399999999999999	-0.0409317770465927	0.09619658957851938	-0.03454184498629692	-0.06427379	0.88391011	0.32122434	0.4471424052124178	-0.1801067430742222	-0.132563093731289	-1.013456605939738	0.1105634118923816	-0.1847826857401009	0	0.08770642362676287	0.1710440324450485	-0.2826699156139768	-0.1172642281350917	0.1345405620712412	-0.07166908391677264	0	-0.1139104873947965	-0.0914700519748293	-0.05351357422931855	-0.195457159587871	-0.2485225878940829	-0.07195416547319464	0.6735963191003936	-0.1171852401182001	-0.3065545643896782	-0.06880728900982734	0.9850800887893123
0.3500000000000001	-0.03670485588172092	0.09090597450283376	-0.02873746441062966	-0.06557974999999999	0.88452674	0.32990478	0.452861949876701	-0.1720804218703192	-0.1423353009472177	-0.979131270867703	0.1187670383024678	-0.1856226542405558	0	0.06937516643948288	0.1672003168717275	-0.2844300717870327	-0.1136895157960575	0.1445613793963446	-0.0507956091135033	0	-0.118800922299099	-0.08393135464544964	-0.06644406014461776	-0.2141052397620143	-0.2493910797869045	-0.09091270568734736	0.6912984737550557	-0.1176063662500906	-0.3085764291934121	-0.07356673398670799	1.001773322883136
0.3599999999999999	-0.0383558628269134	0.0916733239384262	-0.02839994639367373	-0.06670027000000001	0.8842492	0.33868315	0.4678453192853322	-0.1692004676851716	-0.1460448108239699	-0.9452114773590687	0.1225630707824926	-0.1855755462332482	0	0.05351903012856028	0.1714431194318096	-0.2835936276299363	-0.1013921417837339	0.1509531580423857	-0.04848172314970855	0	-0.1139490202504232	-0.08300900695336642	-0.0729909107710998	-0.2265049378905263	-0.2535362051699315	-0.09508118217950272	0.6896224136540133	-0.1149734548684494	-0.311912264949977	-0.07555733435848508	1.005962571411384
0.3700000000000001	-0.0319288386222861	0.08579257558528573	-0.02356987481870526	-0.06792682	0.88485497	0.34766677	0.4668381829745885	-0.1610343281548914	-0.157358285141079	-0.9015975148432183	0.1305451744188621	-0.1773055737496412	0	0.02983126845511784	0.1679045874191033	-0.2792156378001143	-0.09221917922931057	0.1558995792693678	-0.03860673122520192	0	-0.1204717457142537	-0.07470689562784744	-0.08387282729791203	-0.2440792925560403	-0.254099852619612	-0.1145627158890692	0.7062728475621893	-0.1145290212606619	-0.3119947230304875	-0.07994278547085938	1.020027685226896
0.3799999999999999	-0.03405339947043613	0.08755307461150529	-0.02280455383067037	-0.06879753999999999	0.88431763	0.35653652	0.4785968319662854	-0.1585431509475473	-0.1616406375601429	-0.8603317966682844	0.1342572291601968	-0.1764932126927614	0	0.01536763715377946	0.172379853872917	-0.2775175807909102	-0.08201459234754034	0.1626809745711157	-0.03718954673639573	0	-0.1153185766238046	-0.07573846131213147	-0.09085921501096517	-0.2554951396840238	-0.2558717862744603	-0.1189926170468333	0.7050400569343234	-0.1126844182044129	-0.3148670930619036	-0.08174888202595332	1.023489632715624
0.3900000000000001	-0.0262818479996167	0.0809384528873052	-0.0167768916964866	-0.06999079000000002	0.88480024	0.36536175	0.4715257081689821	-0.1497835841126916	-0.1757273840336019	-0.8088080386343101	0.1402883084637098	-0.169962171084111	0	-0.007731638242199885	0.1671995347896897	-0.2719252252505368	-0.07660040734759335	0.1688686643628054	-0.02933735354130577	0	-0.1240969645657151	-0.06608507733340906	-0.1023447592446333	-0.2711510209308299	-0.2563786827727157	-0.1378066235785686	0.7218253828025298	-0.110859886085496	-0.3144820009977497	-0.08550223404991693	1.034130977247131
0.3999999999999999	-0.02858420342787055	0.08083132507415171	-0.01534175295489466	-0.07086480000000001	0.88402162	0.37410984	0.4793293189026123	-0.1449649253502786	-0.1806270323564929	-0.7603190070928918	0.1423394553544362	-0.1640371800483841	0	-0.02177914709608023	0.1693178831398031	-0.2674461216903626	-0.0664415274973402	0.1758362225912234	-0.02492708262523762	0	-0.1195346569713081	-0.06500890574583303	-0.1083699513780464	-0.280786383163295	-0.2576430956250352	-0.1456645250475102	0.7222641226226988	-0.1083926870840805	-0.3154154411298939	-0.08682830694124834	1.038951164219838
0.4100000000000001	-0.02106377333462374	0.07703446947883964	-0.009987873166752441	-0.07176445999999997	0.88419952	0.38304646	0.4702251127214067	-0.138710456119815	-0.19561723856887	-0.7040372249545808	0.1452234648121009	-0.1512528761044478	0	-0.04245187168532424	0.1658961532730294	-0.2649424543832926	-0.06535303371071215	0.1857958891643905	-0.01797609228381003	0	-0.1271524861327098	-0.05931203884265264	-0.1185560929221499	-0.2920050237937665	-0.253156775302937	-0.1655626545378278	0.730354385185479	-0.1057981507803016	-0.3165655569073563	-0.09079318746003297	1.045213641719041
0.4199999999999999	-0.02459968721862399	0.07797118784666604	-0.008884419291512515	-0.07239742999999998	0.8830255	0.39180094	0.476906114066586	-0.1340251956646587	-0.1992169031820883	-0.6517605296123681	0.1448410181434942	-0.1391618848327116	0	-0.05381959415171086	0.1684421123513362	-0.2615601604055005	-0.05793623104895641	0.1913006881684425	-0.01350929556379047	0	-0.1214574877790266	-0.05947740652035108	-0.1235472101114134	-0.3012358464563544	-0.2537180107075911	-0.1725204839519293	0.7305480024133845	-0.1038433390829684	-0.3167410544760333	-0.0916342808251908	1.050117135176807
